<mxfile host="Electron" modified="2023-08-01T03:42:06.131Z" agent="Mozilla/5.0 (Windows NT 10.0; Win64; x64) AppleWebKit/537.36 (KHTML, like Gecko) draw.io/21.6.1 Chrome/112.0.5615.204 Electron/24.6.1 Safari/537.36" etag="O6HSwIE6JkcVAuXVB6t-" version="21.6.1" type="device">
  <diagram name="第 1 页" id="a_KoEZ19DrW7hk5J4YIL">
    <mxGraphModel dx="2418" dy="2037" grid="1" gridSize="10" guides="1" tooltips="1" connect="1" arrows="1" fold="1" page="1" pageScale="1" pageWidth="827" pageHeight="1169" math="0" shadow="0">
      <root>
        <mxCell id="0" />
        <mxCell id="1" parent="0" />
        <mxCell id="j0Q4protp5QyInQSPvly-3" value="&lt;font style=&quot;font-size: 18px;&quot;&gt;公共层&lt;/font&gt;" style="rounded=0;whiteSpace=wrap;html=1;" vertex="1" parent="1">
          <mxGeometry x="-310" y="120" width="210" height="70" as="geometry" />
        </mxCell>
        <mxCell id="j0Q4protp5QyInQSPvly-4" value="&lt;font style=&quot;font-size: 18px;&quot;&gt;数据域&lt;/font&gt;" style="rounded=0;whiteSpace=wrap;html=1;" vertex="1" parent="1">
          <mxGeometry x="70" y="30" width="210" height="70" as="geometry" />
        </mxCell>
        <mxCell id="j0Q4protp5QyInQSPvly-5" value="&lt;font style=&quot;font-size: 18px;&quot;&gt;业务分类&lt;/font&gt;" style="rounded=0;whiteSpace=wrap;html=1;" vertex="1" parent="1">
          <mxGeometry x="70" y="190" width="210" height="70" as="geometry" />
        </mxCell>
        <mxCell id="j0Q4protp5QyInQSPvly-6" value="&lt;font style=&quot;font-size: 18px;&quot;&gt;展示数据域&lt;/font&gt;" style="rounded=0;whiteSpace=wrap;html=1;" vertex="1" parent="1">
          <mxGeometry x="414" y="-50" width="210" height="70" as="geometry" />
        </mxCell>
        <mxCell id="j0Q4protp5QyInQSPvly-7" value="&lt;span style=&quot;font-size: 18px;&quot;&gt;维度&lt;br&gt;维度表&lt;br&gt;明细表&lt;br&gt;汇总表&lt;br&gt;&lt;/span&gt;" style="rounded=0;whiteSpace=wrap;html=1;" vertex="1" parent="1">
          <mxGeometry x="750" y="-60" width="260" height="90" as="geometry" />
        </mxCell>
        <mxCell id="j0Q4protp5QyInQSPvly-8" value="&lt;span style=&quot;font-size: 18px;&quot;&gt;展示业务分类&lt;/span&gt;" style="rounded=0;whiteSpace=wrap;html=1;" vertex="1" parent="1">
          <mxGeometry x="414" y="190" width="210" height="70" as="geometry" />
        </mxCell>
        <mxCell id="j0Q4protp5QyInQSPvly-9" value="&lt;span style=&quot;font-size: 18px;&quot;&gt;业务树&lt;br&gt;业务树对应的数据域&lt;br&gt;&lt;/span&gt;" style="rounded=0;whiteSpace=wrap;html=1;" vertex="1" parent="1">
          <mxGeometry x="720" y="150" width="270" height="100" as="geometry" />
        </mxCell>
        <mxCell id="j0Q4protp5QyInQSPvly-10" value="&lt;font style=&quot;font-size: 18px;&quot;&gt;应用层&lt;/font&gt;" style="rounded=0;whiteSpace=wrap;html=1;" vertex="1" parent="1">
          <mxGeometry x="-300" y="640" width="210" height="70" as="geometry" />
        </mxCell>
        <mxCell id="j0Q4protp5QyInQSPvly-11" value="&lt;font style=&quot;font-size: 18px;&quot;&gt;业务分类&lt;/font&gt;" style="rounded=0;whiteSpace=wrap;html=1;" vertex="1" parent="1">
          <mxGeometry x="50" y="640" width="210" height="70" as="geometry" />
        </mxCell>
        <mxCell id="j0Q4protp5QyInQSPvly-12" value="&lt;font style=&quot;font-size: 18px;&quot;&gt;展示业务分类&lt;/font&gt;" style="rounded=0;whiteSpace=wrap;html=1;" vertex="1" parent="1">
          <mxGeometry x="414" y="630" width="210" height="70" as="geometry" />
        </mxCell>
        <mxCell id="j0Q4protp5QyInQSPvly-13" value="&lt;font style=&quot;font-size: 18px;&quot;&gt;业务树&lt;br&gt;业务树对应的数据集市&lt;br&gt;&lt;/font&gt;" style="rounded=0;whiteSpace=wrap;html=1;" vertex="1" parent="1">
          <mxGeometry x="750" y="560" width="290" height="160" as="geometry" />
        </mxCell>
      </root>
    </mxGraphModel>
  </diagram>
</mxfile>
